<?xml version="1.0" encoding="utf-8"?>
<!-- Generator: Adobe Illustrator 16.0.0, SVG Export Plug-In . SVG Version: 6.00 Build 0)  -->
<!DOCTYPE svg PUBLIC "-//W3C//DTD SVG 1.1//EN" "http://www.w3.org/Graphics/SVG/1.1/DTD/svg11.dtd">
<svg version="1.1" id="Layer_1" xmlns="http://www.w3.org/2000/svg" xmlns:xlink="http://www.w3.org/1999/xlink" x="0px" y="0px"
	 width="612px" height="532px" viewBox="0 0 612 532" enable-background="new 0 0 612 532" xml:space="preserve">
<circle fill="#FFA527" cx="309.509" cy="265.999" r="234.002"/>
<circle fill="#6990F9" cx="1029.51" cy="25.999" r="234.001"/>
<g>
	
		<linearGradient id="SVGID_1_" gradientUnits="userSpaceOnUse" x1="591.3606" y1="229.5815" x2="744.4354" y2="-190.9883" gradientTransform="matrix(1 0 0 1 -16.7197 -260.8906)">
		<stop  offset="0" style="stop-color:#43EBFF"/>
		<stop  offset="1" style="stop-color:#7D6AFF"/>
	</linearGradient>
	<path fill="url(#SVGID_1_)" d="M874.841-247.049c2.61,122.974-93.474,226.209-218.771,228.992
		c-123.07,2.733-224.104-93.41-228.289-215.79c-4.25-124.353,92.466-227.123,216.337-231.219
		C768.283-469.17,871.021-371.743,874.841-247.049z M563.278-88.423c84.058,46.71,180.396,18.939,229.747-48.347
		c25.409-34.644,37.299-73.62,34.104-116.304c-4.615-61.679-34.791-108.463-87.052-141.287c2.602-4.775,4.958-9.106,7.71-14.161
		c-63.328-33.189-127.218-36.432-189.255-1.159c-73.44,41.757-106.72,107.356-97.983,191.37
		c6.551,63.008,40.332,110.259,94.596,143.747C558.102-79.604,560.602-83.863,563.278-88.423z"/>
</g>
<g>
	
		<linearGradient id="SVGID_2_" gradientUnits="userSpaceOnUse" x1="1038.6047" y1="1108.2002" x2="1191.6797" y2="687.6299" gradientTransform="matrix(1 0 0 1 -16.7197 -260.8906)">
		<stop  offset="0" style="stop-color:#43EBFF"/>
		<stop  offset="1" style="stop-color:#7D6AFF"/>
	</linearGradient>
	<path fill="url(#SVGID_2_)" d="M1322.086,631.57c2.61,122.974-93.474,226.209-218.771,228.992
		c-123.07,2.732-224.104-93.41-228.289-215.79c-4.25-124.354,92.466-227.123,216.337-231.22
		C1215.53,409.449,1318.266,506.877,1322.086,631.57z M1010.523,790.196c84.057,46.71,180.396,18.938,229.747-48.348
		c25.409-34.644,37.299-73.62,34.104-116.305c-4.614-61.678-34.791-108.463-87.051-141.286c2.602-4.774,4.958-9.105,7.71-14.161
		c-63.329-33.188-127.218-36.432-189.255-1.159c-73.44,41.758-106.72,107.356-97.984,191.37
		c6.552,63.009,40.332,110.26,94.597,143.747C1005.347,799.016,1007.847,794.756,1010.523,790.196z"/>
</g>
<path fill="#FFFFFF" d="M776.883,133.627c3.276-14.989,6.215-28.457,9.168-41.92c2.456-11.19,4.755-22.42,7.498-33.54
	c0.925-3.749,2.432-7.617,4.646-10.74c10.299-14.521,20.936-28.803,31.462-43.162c4.139-5.644,6.582-5.683,10.647-0.141
	c10.729,14.624,22.011,28.892,31.875,44.079c3.961,6.099,5.251,14.124,6.96,21.458c4.597,19.73,8.699,39.577,13.154,59.342
	c1.003,4.447,0.222,7.344-4.012,9.911c-16.348,9.918-32.498,20.163-48.636,30.421c-3.201,2.034-5.813,2.192-9.115,0.085
	c-16.395-10.471-32.954-20.682-49.351-31.148C779.24,137.033,777.935,134.793,776.883,133.627z M835.018,48.42
	c-6.923,12.247-13.527,23.761-19.883,35.41c-0.724,1.324-0.443,3.528,0.039,5.123c3.021,10.005,6.228,19.953,9.379,29.919
	c3.146,9.951,3.146,9.84,13.824,9.811c2.979-0.009,4.365-0.893,5.256-3.831c3.649-12.068,7.608-24.042,11.365-36.079
	c0.424-1.353,0.887-3.218,0.303-4.28C848.772,72.609,842.041,60.836,835.018,48.42z M859.86,73.646
	c1.959-6.104,3.669-11.118,5.131-16.204c0.371-1.291,0.5-3.201-0.188-4.163c-8.056-11.254-16.285-22.381-24.752-33.929
	c0,6.874-1.897,13.91,0.384,19.113C845.649,50.358,852.906,61.357,859.86,73.646z M830.383,18.795
	c-8.68,11.841-16.603,22.535-24.338,33.361c-0.911,1.275-1.439,3.443-1.056,4.912c1.369,5.231,3.209,10.34,5.191,16.489
	c5.258-9.23,9.42-18.154,15.063-26.015C831.49,38.844,830.517,29.553,830.383,18.795z M817.905,128.272
	c-3.348-10.505-6.559-20.582-10.121-31.76c-6.282,11.098-11.947,21.107-17.979,31.76
	C799.418,128.272,808.136,128.272,817.905,128.272z M862.227,96.452c-3.588,11.354-6.76,21.396-10.043,31.787
	c9.488,0,18.329,0,28.051,0C874.198,117.583,868.534,107.59,862.227,96.452z M799.772,138.189c-0.086,0.309-0.172,0.617-0.258,0.926
	c8.791,5.482,17.58,10.965,27.33,17.045c-2.238-6.885-4.051-12.463-5.842-17.971C813.614,138.189,806.692,138.189,799.772,138.189z
	 M843.798,155.814c4.854-3.023,9.343-5.803,13.813-8.611c4.367-2.743,8.715-5.517,14.019-8.876c-8.298,0-15.234,0-22.174,0
	c-1.909,5.399-3.82,10.798-5.724,16.199C843.686,154.662,843.742,154.834,843.798,155.814z M875.834,101.709
	c0.286-0.108,0.573-0.216,0.861-0.323c-2.083-9.438-4.167-18.879-6.251-28.318c-0.412-0.004-0.826-0.009-1.237-0.013
	c-0.813,4.286-3.166,9.021-2.08,12.754C868.776,91.474,872.813,96.444,875.834,101.709z M799.572,72.986
	c-2.064,9.46-4.149,19.006-6.234,28.552C798.524,92.643,808.443,84.741,799.572,72.986z M835.012,151.512
	c1.565-4.911,2.84-8.9,4.185-13.118c-2.928,0-5.433,0-8.353,0C832.227,142.749,833.466,146.648,835.012,151.512z"/>
<path fill="#FFFFFF" d="M301.781,169.936c5.636,0,10.709,0,16.319,0c0-11.056,0-21.967,0-33.244c8.069,0,15.609,0,23.591,0
	c0,11.386,0,22.491,0,33.858c6.682,1.246,13.057,2.163,19.295,3.656c11.323,2.71,21.692,7.421,30.133,15.744
	c25.766,25.408,9.104,67.772-17.121,72.963c-0.571,0.113-1.063,0.647-2.028,1.267c1.056,0.756,1.71,1.553,2.513,1.752
	c31.872,7.93,42.787,42.643,28.031,70.472c-10.279,19.388-27.341,29.326-48.357,33.337c-1.633,0.312-3.266,0.629-4.91,0.862
	c-7.515,1.063-7.518,1.052-7.52,8.854c-0.002,5.141,0,10.281,0,15.791c-7.902,0-15.445,0-23.47,0c0-7.871,0-15.463,0-23.408
	c-5.546,0-10.62,0-16.368,0c0,7.732,0,15.455,0,23.469c-8.081,0-15.496,0-23.574,0c0-7.84,0-15.552,0-23.856
	c-16.228,0-31.807,0-47.715,0c0-11.854,0-23.106,0-35.269c5.425,0,11.001,0.013,16.577-0.004c9.49-0.024,13.096-3.551,13.097-12.856
	c0.003-36.488-0.002-72.977-0.02-109.464c-0.004-8.862-3.443-12.285-12.44-12.37c-5.629-0.053-11.259-0.01-17.215-0.01
	c0-10.62,0-20.662,0-31.191c15.779,0,31.364,0,47.472,0c0-11.377,0-22.289,0-33.581c8.067,0,15.607,0,23.714,0
	C301.781,147.844,301.781,158.748,301.781,169.936z M302.014,336.027c11.275,0,21.938,0.51,32.515-0.205
	c5.646-0.383,11.552-2.063,16.637-4.576c18.248-9.021,19.643-30.658,3.011-42.408c-6.1-4.308-12.959-6.881-20.434-7.055
	c-10.545-0.244-21.099-0.063-31.729-0.063C302.014,300.064,302.014,317.785,302.014,336.027z M302.049,250.859
	c13.229-0.769,26.244-0.502,38.889-2.535c13.855-2.229,19.748-10.471,19.28-23.034c-0.412-11.074-7.362-18.442-20.732-20.298
	c-9.499-1.318-19.188-1.297-28.8-1.732c-2.886-0.131-5.793,0.214-8.636,0.338C302.049,219.415,302.049,234.473,302.049,250.859z"/>
</svg>
