<?xml version="1.0" encoding="utf-8"?>
<!-- Generator: Adobe Illustrator 16.0.0, SVG Export Plug-In . SVG Version: 6.00 Build 0)  -->
<!DOCTYPE svg PUBLIC "-//W3C//DTD SVG 1.1//EN" "http://www.w3.org/Graphics/SVG/1.1/DTD/svg11.dtd">
<svg version="1.1" id="Layer_1" xmlns="http://www.w3.org/2000/svg" xmlns:xlink="http://www.w3.org/1999/xlink" x="0px" y="0px"
	 width="612px" height="532px" viewBox="0 0 612 532" enable-background="new 0 0 612 532" xml:space="preserve">
<circle fill="#6990F9" cx="309.509" cy="265.999" r="234.002"/>
<g>
	
		<linearGradient id="SVGID_1_" gradientUnits="userSpaceOnUse" x1="583.0012" y1="587.3633" x2="736.0762" y2="1007.9336" gradientTransform="matrix(1 0 0 -1 -8.3599 556.0547)">
		<stop  offset="0" style="stop-color:#43EBFF"/>
		<stop  offset="1" style="stop-color:#7D6AFF"/>
	</linearGradient>
	<path fill="url(#SVGID_1_)" d="M874.841-247.049c2.611,122.974-93.473,226.209-218.77,228.992
		c-123.07,2.733-224.104-93.41-228.289-215.79c-4.25-124.352,92.466-227.123,216.337-231.219
		C768.284-469.17,871.021-371.743,874.841-247.049z M563.278-88.423c84.057,46.71,180.396,18.939,229.747-48.347
		c25.409-34.644,37.299-73.62,34.104-116.304c-4.615-61.679-34.791-108.463-87.051-141.287c2.601-4.775,4.958-9.106,7.71-14.161
		c-63.329-33.189-127.218-36.432-189.255-1.159c-73.441,41.757-106.72,107.356-97.984,191.37
		c6.551,63.008,40.332,110.259,94.596,143.747C558.102-79.604,560.602-83.863,563.278-88.423z"/>
</g>
<g>
	
		<linearGradient id="SVGID_2_" gradientUnits="userSpaceOnUse" x1="1030.2463" y1="-291.2554" x2="1183.3213" y2="129.3149" gradientTransform="matrix(1 0 0 -1 -8.3599 556.0547)">
		<stop  offset="0" style="stop-color:#43EBFF"/>
		<stop  offset="1" style="stop-color:#7D6AFF"/>
	</linearGradient>
	<path fill="url(#SVGID_2_)" d="M1322.086,631.57c2.611,122.974-93.473,226.209-218.77,228.992
		c-123.07,2.733-224.104-93.41-228.289-215.79c-4.25-124.353,92.466-227.123,216.337-231.219
		C1215.53,409.449,1318.266,506.877,1322.086,631.57z M1010.523,790.196c84.057,46.71,180.396,18.939,229.747-48.347
		c25.409-34.644,37.299-73.62,34.104-116.305c-4.615-61.678-34.791-108.463-87.051-141.286c2.601-4.775,4.958-9.106,7.71-14.161
		c-63.329-33.189-127.218-36.432-189.255-1.159c-73.441,41.757-106.72,107.356-97.984,191.37
		c6.551,63.008,40.332,110.259,94.596,143.747C1005.347,799.016,1007.847,794.756,1010.523,790.196z"/>
</g>
<g>
	<g>
		<path fill="#FFFFFF" d="M308.027,404.047c-1.953-2.423-4.021-4.762-5.844-7.281c-27.752-38.343-55.473-76.709-83.198-115.07
			c-2.805-3.883-2.821-4.319-0.326-8.413c28.729-47.151,57.454-94.304,86.214-141.436c0.863-1.413,2.094-2.601,3.153-3.895
			c1.08,0,2.158,0,3.234,0c1.013,1.218,2.198,2.331,3.017,3.668c28.938,47.436,57.833,94.9,86.794,142.327
			c1.585,2.596,1.508,4.655-0.272,7.114c-28.984,39.997-57.91,80.039-86.87,120.057c-0.768,1.063-1.771,1.956-2.667,2.929
			C310.185,404.047,309.107,404.047,308.027,404.047z M305.27,148.649c-0.154-0.048-0.308-0.098-0.461-0.148
			c-25.653,42.098-51.305,84.195-77.045,126.438c25.94,15.01,51.573,29.841,77.506,44.843
			C305.27,262.349,305.27,205.5,305.27,148.649z M314.023,319.787c26.051-15.08,51.697-29.922,77.495-44.854
			c-25.817-42.37-51.451-84.436-77.083-126.501c-0.137,0.078-0.274,0.155-0.412,0.234
			C314.023,205.515,314.023,262.364,314.023,319.787z M236.194,289.809c-0.122,0.149-0.247,0.299-0.369,0.445
			c23.005,31.819,46.011,63.638,69.498,96.122c0-1.593,0-2.359,0-3.123c0.003-16.885-0.03-33.768,0.059-50.652
			c0.01-2.035-0.546-3.159-2.375-4.204c-15.111-8.632-30.148-17.395-45.211-26.112C250.599,298.119,243.394,293.967,236.194,289.809
			z M383.504,290.186c-0.134-0.102-0.268-0.201-0.402-0.304c-0.165,0.069-0.34,0.121-0.494,0.209
			c-22.362,12.94-44.713,25.903-67.114,38.778c-1.514,0.872-1.548,1.941-1.545,3.309c0.017,17.156,0.013,34.308,0.023,51.463
			c0,0.65,0.085,1.301,0.169,2.492C337.494,353.829,360.498,322.007,383.504,290.186z"/>
		<path fill="#FFFFFF" d="M313.23,408.529h-7.343l-1.346-1.669c-0.604-0.747-1.222-1.491-1.837-2.234
			c-1.386-1.666-2.817-3.392-4.151-5.232c-23.426-32.367-46.831-64.751-70.235-97.137l-12.964-17.938
			c-3.867-5.352-3.959-7.726-0.52-13.37l9.201-15.101c25.662-42.118,51.326-84.236,77.014-126.335
			c0.794-1.304,1.742-2.373,2.578-3.317c0.317-0.359,0.635-0.716,0.938-1.084l1.345-1.642h7.456l1.345,1.616
			c0.284,0.342,0.584,0.674,0.885,1.007c0.813,0.902,1.735,1.925,2.51,3.192c12.162,19.934,24.315,39.874,36.468,59.814
			c16.768,27.509,33.534,55.017,50.323,82.511c2.513,4.118,2.356,8.182-0.468,12.08c-18.51,25.543-36.992,51.102-55.479,76.661
			c-10.461,14.465-20.923,28.934-31.39,43.396c-0.72,0.993-1.519,1.808-2.222,2.527c-0.264,0.268-0.524,0.534-0.775,0.806
			L313.23,408.529z M309.803,388.39v10.701c0.188-0.211,0.356-0.41,0.494-0.602c0.063-0.084,0.124-0.17,0.185-0.255L309.803,388.39z
			 M250.923,303.486l49.917,69.038v-1.022c-0.006-12.756-0.009-25.944,0.059-38.925c0-0.088-0.001-0.164-0.003-0.224
			c-0.034-0.021-0.071-0.042-0.113-0.068c-11.281-6.442-22.705-13.064-33.75-19.47c-3.827-2.22-7.653-4.438-11.484-6.655
			C254.007,305.271,252.465,304.377,250.923,303.486z M318.431,332.353c0.01,10.094,0.013,20.189,0.017,30.284l0.004,9.883
			l49.866-68.978C351.938,313.024,335.074,322.783,318.431,332.353z M307.581,326.299c1.025,1.067,1.693,2.328,2.027,3.814
			c0.192-1.113,0.642-2.405,1.693-3.572l-1.552,0.898v0.115l-0.099-0.058l-0.111,0.064v-0.128L307.581,326.299z M318.505,163.725
			v148.288l66.8-38.661L318.505,163.725z M233.976,273.355l66.813,38.655V163.71L233.976,273.355z M221.459,277.389
			c0.327,0.53,0.904,1.327,1.159,1.68l7.756,10.732l4.589-5.519l-13.119-7.592C221.701,276.939,221.565,277.184,221.459,277.389z
			 M383.753,284.755l5.706,4.318c2.568-3.548,5.139-7.095,7.708-10.643c0.621-0.856,0.708-1.048,0.306-1.765l-14.636,8.471
			L383.753,284.755z M303.162,143.257l6.589,2.125v0.555l5.951-3.373c-1.751-2.871-3.5-5.74-5.252-8.61
			c-0.198-0.323-0.473-0.675-0.791-1.043c-0.38,0.446-0.717,0.871-0.962,1.271C306.853,137.207,305.007,140.232,303.162,143.257z"/>
	</g>
</g>
<path fill-rule="evenodd" clip-rule="evenodd" fill="#FFFFFF" d="M776.883,133.627c3.277-14.989,6.215-28.457,9.168-41.92
	c2.456-11.19,4.755-22.42,7.498-33.54c0.925-3.749,2.432-7.617,4.646-10.74c10.299-14.521,20.935-28.803,31.462-43.162
	c4.138-5.644,6.582-5.683,10.647-0.141c10.73,14.624,22.011,28.892,31.875,44.079c3.961,6.099,5.251,14.124,6.96,21.458
	c4.597,19.73,8.699,39.577,13.154,59.342c1.003,4.447,0.222,7.344-4.011,9.911c-16.348,9.918-32.498,20.163-48.636,30.421
	c-3.201,2.034-5.813,2.192-9.115,0.085c-16.395-10.471-32.954-20.682-49.351-31.148C779.24,137.033,777.935,134.793,776.883,133.627
	z M835.018,48.42c-6.923,12.247-13.527,23.761-19.883,35.41c-0.723,1.324-0.443,3.528,0.039,5.123
	c3.021,10.005,6.228,19.953,9.379,29.919c3.146,9.951,3.147,9.84,13.824,9.811c2.98-0.009,4.366-0.893,5.256-3.831
	c3.65-12.068,7.609-24.042,11.366-36.079c0.423-1.353,0.886-3.218,0.302-4.28C848.772,72.609,842.041,60.836,835.018,48.42z
	 M859.86,73.646c1.959-6.104,3.669-11.118,5.131-16.204c0.371-1.291,0.5-3.201-0.188-4.163
	c-8.055-11.254-16.285-22.381-24.752-33.929c0,6.874-1.897,13.91,0.384,19.113C845.649,50.358,852.907,61.357,859.86,73.646z
	 M830.383,18.795c-8.679,11.841-16.602,22.535-24.338,33.361c-0.911,1.275-1.439,3.443-1.055,4.912
	c1.369,5.231,3.209,10.34,5.191,16.489c5.258-9.23,9.42-18.154,15.063-26.015C831.49,38.844,830.517,29.553,830.383,18.795z
	 M817.905,128.272c-3.348-10.505-6.559-20.582-10.121-31.76c-6.283,11.098-11.948,21.107-17.979,31.76
	C799.418,128.272,808.136,128.272,817.905,128.272z M862.227,96.452c-3.588,11.354-6.76,21.396-10.043,31.787
	c9.488,0,18.329,0,28.051,0C874.198,117.583,868.535,107.59,862.227,96.452z M799.772,138.189c-0.086,0.309-0.172,0.617-0.258,0.926
	c8.791,5.482,17.58,10.965,27.33,17.045c-2.238-6.885-4.051-12.463-5.842-17.971C813.614,138.189,806.692,138.189,799.772,138.189z
	 M843.798,155.814c4.854-3.023,9.343-5.803,13.813-8.611c4.367-2.743,8.715-5.517,14.018-8.876c-8.297,0-15.234,0-22.173,0
	c-1.91,5.399-3.821,10.798-5.724,16.199C843.686,154.662,843.743,154.834,843.798,155.814z M875.834,101.709
	c0.287-0.108,0.574-0.216,0.862-0.323c-2.083-9.439-4.167-18.879-6.251-28.318c-0.412-0.004-0.826-0.009-1.238-0.013
	c-0.813,4.286-3.166,9.021-2.08,12.754C868.776,91.474,872.813,96.444,875.834,101.709z M799.572,72.986
	c-2.065,9.46-4.15,19.006-6.235,28.552C798.524,92.643,808.443,84.741,799.572,72.986z M835.012,151.512
	c1.566-4.911,2.84-8.9,4.185-13.118c-2.928,0-5.433,0-8.353,0C832.227,142.749,833.466,146.648,835.012,151.512z"/>
</svg>
