<?xml version="1.0" encoding="utf-8"?>
<!-- Generator: Adobe Illustrator 16.0.0, SVG Export Plug-In . SVG Version: 6.00 Build 0)  -->
<!DOCTYPE svg PUBLIC "-//W3C//DTD SVG 1.1//EN" "http://www.w3.org/Graphics/SVG/1.1/DTD/svg11.dtd">
<svg version="1.1" id="Layer_1" xmlns="http://www.w3.org/2000/svg" xmlns:xlink="http://www.w3.org/1999/xlink" x="0px" y="0px"
	 width="1522.424px" height="304.484px" viewBox="0 0 1522.424 304.484" enable-background="new 0 0 1522.424 304.484"
	 xml:space="preserve">
<g>
	<polygon fill="#FFFFFF" points="417.258,73.585 417.258,99.332 358.04,99.332 358.04,133 403.394,133 403.394,157.756 
		358.04,157.756 358.04,192.119 417.258,192.119 417.258,217.866 324.372,217.866 324.372,73.585 	"/>
	<path fill="#FFFFFF" d="M471.818,143.695l-44.661-70.108h33.472c2.179,0,3.778,0.281,4.803,0.842
		c1.022,0.562,1.931,1.502,2.723,2.821l28.718,48.622c0.329-0.856,0.708-1.684,1.139-2.477c0.429-0.792,0.908-1.617,1.436-2.476
		l25.153-43.175c1.648-2.773,3.894-4.159,6.733-4.159h32.084l-45.255,68.625l46.246,75.655h-33.471
		c-2.179,0-3.946-0.526-5.298-1.585c-1.354-1.056-2.426-2.311-3.219-3.764l-28.915-50.503c-0.529,1.453-1.124,2.708-1.783,3.764
		l-26.936,46.739c-0.792,1.387-1.849,2.624-3.168,3.714c-1.321,1.089-2.971,1.635-4.952,1.635h-31.291L471.818,143.695z"/>
	<path fill="#FFFFFF" d="M671.255,180.534c0.792,0,1.584,0.146,2.376,0.443c0.792,0.298,1.55,0.811,2.277,1.534l13.27,13.964
		c-5.811,7.593-13.088,13.318-21.835,17.183c-8.749,3.86-19.098,5.792-31.045,5.792c-10.959,0-20.779-1.864-29.46-5.596
		c-8.683-3.729-16.042-8.878-22.083-15.447c-6.04-6.568-10.68-14.358-13.913-23.37c-3.235-9.012-4.853-18.799-4.853-29.36
		c0-10.76,1.849-20.646,5.545-29.658c3.697-9.012,8.864-16.785,15.498-23.321c6.635-6.535,14.573-11.617,23.816-15.25
		c9.242-3.631,19.44-5.447,30.598-5.447c5.413,0,10.514,0.479,15.3,1.436c4.786,0.958,9.26,2.278,13.42,3.962
		c4.157,1.685,7.985,3.697,11.485,6.04c3.499,2.346,6.602,4.937,9.31,7.773l-11.289,15.15c-0.729,0.926-1.584,1.768-2.575,2.524
		c-0.99,0.76-2.376,1.14-4.159,1.14c-1.188,0-2.312-0.264-3.367-0.793c-1.057-0.526-2.179-1.171-3.367-1.931
		c-1.188-0.758-2.491-1.585-3.911-2.476c-1.421-0.892-3.104-1.717-5.051-2.477c-1.947-0.758-4.225-1.4-6.832-1.931
		c-2.608-0.528-5.66-0.793-9.159-0.793c-6.075,0-11.62,1.074-16.638,3.219c-5.018,2.146-9.325,5.216-12.922,9.209
		c-3.6,3.995-6.405,8.83-8.417,14.507c-2.015,5.679-3.02,12.05-3.02,19.113c0,7.395,1.005,13.961,3.02,19.705
		c2.012,5.744,4.752,10.581,8.218,14.507c3.467,3.93,7.51,6.916,12.132,8.963c4.619,2.047,9.57,3.069,14.854,3.069
		c3.036,0,5.808-0.147,8.318-0.445c2.508-0.297,4.835-0.808,6.98-1.534s4.192-1.667,6.141-2.821c1.946-1.155,3.91-2.592,5.892-4.309
		c0.793-0.66,1.65-1.204,2.575-1.635C669.307,180.749,670.264,180.534,671.255,180.534"/>
	<path fill="#FFFFFF" d="M846.826,145.676c0,10.432-1.799,20.136-5.396,29.113c-3.599,8.979-8.664,16.783-15.201,23.42
		c-6.535,6.635-14.408,11.833-23.617,15.597c-9.209,3.763-19.426,5.645-30.647,5.645c-11.225,0-21.456-1.882-30.698-5.645
		c-9.243-3.764-17.149-8.962-23.717-15.597c-6.569-6.637-11.653-14.441-15.25-23.42c-3.6-8.979-5.396-18.683-5.396-29.113
		s1.797-20.135,5.396-29.113c3.597-8.979,8.681-16.769,15.25-23.371c6.567-6.601,14.474-11.784,23.717-15.547
		c9.24-3.763,19.472-5.645,30.696-5.645c11.223,0,21.438,1.897,30.647,5.693c9.209,3.797,17.082,8.996,23.617,15.598
		c6.537,6.602,11.603,14.393,15.201,23.369C845.028,125.64,846.826,135.312,846.826,145.676 M812.565,145.676
		c0-7.13-0.926-13.55-2.773-19.261c-1.85-5.71-4.506-10.546-7.973-14.509c-3.465-3.96-7.709-6.995-12.724-9.109
		c-5.019-2.111-10.729-3.169-17.132-3.169c-6.472,0-12.23,1.058-17.28,3.169c-5.051,2.114-9.309,5.149-12.775,9.109
		c-3.466,3.963-6.123,8.799-7.97,14.509c-1.85,5.711-2.774,12.131-2.774,19.261c0,7.196,0.925,13.65,2.774,19.358
		c1.847,5.712,4.504,10.547,7.97,14.508c3.467,3.962,7.725,6.98,12.775,9.061c5.05,2.08,10.809,3.12,17.28,3.12
		c6.401,0,12.113-1.04,17.132-3.12c5.015-2.079,9.259-5.099,12.724-9.061c3.467-3.961,6.123-8.796,7.973-14.508
		C811.639,159.327,812.565,152.873,812.565,145.676"/>
	<rect x="865.838" y="73.585" fill="#FFFFFF" width="33.668" height="144.279"/>
	<path fill="#FFFFFF" d="M947.532,73.783c0.99,0.134,1.881,0.381,2.675,0.742c0.791,0.363,1.551,0.876,2.276,1.535
		c0.728,0.66,1.551,1.552,2.477,2.674l68.525,86.646c-0.265-2.772-0.463-5.461-0.595-8.069c-0.133-2.607-0.197-5.065-0.197-7.378
		V73.585h29.509v144.279h-17.428c-2.575,0-4.754-0.396-6.536-1.188c-1.781-0.792-3.5-2.245-5.148-4.358l-68.03-85.954
		c0.197,2.511,0.362,4.97,0.494,7.379s0.199,4.671,0.199,6.782v77.339h-29.511V73.585h17.626
		C945.32,73.585,946.541,73.652,947.532,73.783"/>
	<path fill="#FFFFFF" d="M1172.914,180.534c0.793,0,1.586,0.146,2.377,0.443c0.793,0.298,1.551,0.811,2.277,1.534l13.271,13.964
		c-5.811,7.593-13.089,13.318-21.835,17.183c-8.749,3.86-19.098,5.792-31.045,5.792c-10.959,0-20.779-1.864-29.461-5.596
		c-8.683-3.729-16.043-8.878-22.082-15.447c-6.041-6.568-10.68-14.358-13.913-23.37c-3.235-9.012-4.854-18.799-4.854-29.36
		c0-10.76,1.849-20.646,5.545-29.658c3.697-9.012,8.863-16.785,15.499-23.321c6.635-6.535,14.572-11.617,23.815-15.25
		c9.241-3.63,19.44-5.445,30.599-5.445c5.412,0,10.512,0.479,15.3,1.436c4.785,0.958,9.26,2.278,13.418,3.962
		c4.158,1.685,7.985,3.697,11.485,6.04c3.5,2.346,6.602,4.937,9.311,7.773l-11.289,15.15c-0.729,0.926-1.584,1.768-2.574,2.524
		c-0.99,0.76-2.377,1.14-4.159,1.14c-1.188,0-2.312-0.264-3.367-0.793c-1.057-0.526-2.179-1.171-3.366-1.931
		c-1.188-0.758-2.492-1.585-3.911-2.476c-1.421-0.892-3.104-1.717-5.051-2.477c-1.947-0.758-4.226-1.4-6.833-1.931
		c-2.607-0.528-5.66-0.793-9.16-0.793c-6.073,0-11.619,1.074-16.638,3.219c-5.017,2.146-9.323,5.216-12.921,9.209
		c-3.6,3.995-6.405,8.83-8.418,14.507c-2.014,5.68-3.02,12.05-3.02,19.113c0,7.395,1.006,13.961,3.02,19.705
		c2.013,5.744,4.753,10.581,8.22,14.507c3.466,3.93,7.51,6.916,12.132,8.963c4.618,2.047,9.569,3.069,14.853,3.069
		c3.037,0,5.81-0.147,8.318-0.445c2.509-0.297,4.836-0.808,6.98-1.534c2.146-0.726,4.192-1.667,6.14-2.821
		c1.946-1.155,3.912-2.592,5.894-4.309c0.793-0.66,1.649-1.204,2.575-1.635C1170.967,180.749,1171.924,180.534,1172.914,180.534"/>
	<rect x="1209.059" y="73.585" fill="#FFFFFF" width="33.668" height="144.279"/>
	<path fill="#FFFFFF" d="M1403.742,217.866h-25.944c-2.906,0-5.298-0.678-7.181-2.03c-1.882-1.353-3.186-3.085-3.91-5.199
		l-8.518-25.152h-54.861l-8.515,25.152c-0.661,1.85-1.948,3.517-3.862,5.001c-1.916,1.486-4.259,2.229-7.03,2.229h-26.144
		l55.852-144.28h34.263L1403.742,217.866z M1311.054,162.708h39.412l-13.271-39.513c-0.856-2.508-1.865-5.461-3.02-8.861
		c-1.155-3.399-2.296-7.081-3.417-11.042c-1.059,4.027-2.146,7.758-3.27,11.189c-1.123,3.433-2.177,6.403-3.168,8.912
		L1311.054,162.708z"/>
	<polygon fill="#FFFFFF" points="1448.898,191.129 1502.371,191.129 1502.371,217.866 1415.427,217.866 1415.427,73.585 
		1448.898,73.585 	"/>
	<path fill="#FFFFFF" d="M18.35,33.087c0,0,109.829,125.596,1.479,233.454H38.54c0,0,101.46-97.023,0-233.454H18.35z"/>
	<path fill="#FFFFFF" d="M63.252,33.094h62.549c0,0,99.982,117.218,0,235.421H64.238C64.238,268.515,149.931,147.848,63.252,33.094"
		/>
	<path fill="#FFFFFF" d="M179.777,211.872c-6.979,18.53-17.882,37.572-34.013,56.644h133.952c0,0-18.792-22.046-31.936-56.644
		H179.777z"/>
	<path fill="#FFFFFF" d="M145.765,33.094c0,0,18.792,22.046,31.936,56.643h68.004c6.98-18.529,17.882-37.572,34.012-56.643H145.765z
		"/>
	<path fill="#FFFFFF" d="M237.192,121.991h-50.253c3.429,17.632,4.496,37.091,1.311,57.628h4.682h45.598
		C235.096,161.985,234.009,142.527,237.192,121.991"/>
</g>
<g display="none">
	<polygon display="inline" fill="#ED2224" points="416.886,74.184 416.886,99.93 357.668,99.93 357.668,133.599 403.022,133.599 
		403.022,158.355 357.668,158.355 357.668,192.716 416.886,192.716 416.886,218.464 324,218.464 324,74.184 	"/>
	<path display="inline" fill="#ED2224" d="M471.446,144.293l-44.661-70.109h33.472c2.179,0,3.778,0.281,4.803,0.842
		c1.023,0.563,1.931,1.502,2.723,2.821l28.719,48.622c0.328-0.856,0.707-1.683,1.138-2.476c0.429-0.792,0.908-1.617,1.436-2.477
		l25.153-43.175c1.648-2.773,3.894-4.159,6.734-4.159h32.084l-45.256,68.625l46.246,75.656h-33.471
		c-2.179,0-3.946-0.527-5.298-1.584c-1.354-1.058-2.426-2.312-3.219-3.764l-28.915-50.505c-0.529,1.453-1.124,2.709-1.783,3.765
		l-26.936,46.74c-0.792,1.387-1.849,2.623-3.168,3.713c-1.321,1.09-2.971,1.635-4.951,1.635h-31.292L471.446,144.293z"/>
	<path display="inline" fill="#272361" d="M670.883,181.132c0.792,0,1.584,0.146,2.376,0.443c0.792,0.299,1.55,0.811,2.277,1.534
		l13.27,13.963c-5.811,7.595-13.088,13.318-21.835,17.183c-8.749,3.861-19.098,5.793-31.045,5.793
		c-10.959,0-20.779-1.865-29.46-5.596c-8.683-3.729-16.042-8.877-22.083-15.447c-6.04-6.568-10.68-14.359-13.913-23.371
		c-3.235-9.01-4.853-18.797-4.853-29.36c0-10.76,1.849-20.646,5.545-29.657c3.697-9.013,8.864-16.785,15.498-23.321
		c6.635-6.536,14.573-11.618,23.816-15.25c9.242-3.63,19.44-5.446,30.598-5.446c5.413,0,10.514,0.48,15.3,1.437
		c4.786,0.958,9.26,2.277,13.419,3.962c4.158,1.684,7.986,3.696,11.486,6.04c3.499,2.345,6.602,4.936,9.31,7.772L679.3,106.961
		c-0.729,0.925-1.584,1.767-2.575,2.523c-0.99,0.761-2.376,1.141-4.159,1.141c-1.188,0-2.312-0.265-3.367-0.793
		c-1.057-0.527-2.179-1.171-3.367-1.932c-1.188-0.758-2.491-1.585-3.911-2.476s-3.104-1.716-5.051-2.476
		c-1.947-0.759-4.225-1.401-6.832-1.932c-2.608-0.528-5.66-0.793-9.159-0.793c-6.075,0-11.62,1.074-16.638,3.219
		c-5.018,2.146-9.324,5.217-12.922,9.209c-3.6,3.995-6.405,8.83-8.417,14.508c-2.015,5.679-3.02,12.05-3.02,19.112
		c0,7.396,1.005,13.961,3.02,19.706c2.013,5.744,4.752,10.58,8.218,14.506c3.467,3.931,7.51,6.916,12.132,8.963
		c4.619,2.048,9.57,3.07,14.854,3.07c3.036,0,5.808-0.147,8.318-0.445c2.508-0.297,4.835-0.809,6.98-1.534
		c2.146-0.728,4.192-1.666,6.141-2.822c1.946-1.154,3.911-2.59,5.892-4.307c0.793-0.66,1.65-1.205,2.575-1.636
		C668.935,181.347,669.892,181.132,670.883,181.132"/>
	<path display="inline" fill="#272361" d="M846.455,146.274c0,10.433-1.8,20.136-5.396,29.114c-3.6,8.979-8.665,16.783-15.201,23.42
		c-6.536,6.635-14.409,11.832-23.618,15.596c-9.209,3.765-19.426,5.646-30.646,5.646c-11.226,0-21.457-1.881-30.698-5.646
		c-9.243-3.764-17.149-8.961-23.717-15.596c-6.569-6.637-11.653-14.44-15.25-23.42c-3.599-8.979-5.396-18.682-5.396-29.114
		c0-10.431,1.798-20.135,5.396-29.112c3.597-8.979,8.681-16.77,15.25-23.371c6.567-6.602,14.474-11.784,23.717-15.547
		c9.242-3.764,19.474-5.646,30.698-5.646c11.222,0,21.438,1.898,30.646,5.694c9.209,3.797,17.082,8.996,23.618,15.597
		c6.536,6.603,11.603,14.394,15.201,23.369C844.656,126.238,846.455,135.91,846.455,146.274 M812.193,146.274
		c0-7.13-0.925-13.55-2.771-19.261c-1.852-5.71-4.507-10.546-7.974-14.508c-3.466-3.96-7.709-6.996-12.725-9.11
		c-5.019-2.11-10.729-3.169-17.131-3.169c-6.472,0-12.23,1.059-17.28,3.169c-5.051,2.114-9.308,5.15-12.775,9.11
		c-3.466,3.962-6.123,8.798-7.97,14.508c-1.85,5.711-2.773,12.131-2.773,19.261c0,7.196,0.924,13.651,2.773,19.358
		c1.847,5.713,4.504,10.547,7.97,14.508c3.468,3.963,7.725,6.982,12.775,9.062c5.05,2.079,10.81,3.12,17.28,3.12
		c6.4,0,12.112-1.041,17.131-3.12c5.016-2.078,9.259-5.099,12.725-9.062c3.467-3.961,6.122-8.795,7.974-14.508
		C811.268,159.925,812.193,153.47,812.193,146.274"/>
	<rect x="865.467" y="74.184" display="inline" fill="#272361" width="33.668" height="144.281"/>
	<path display="inline" fill="#272361" d="M947.16,74.381c0.99,0.134,1.881,0.381,2.675,0.743c0.793,0.362,1.551,0.876,2.276,1.535
		c0.728,0.659,1.551,1.552,2.478,2.674l68.524,86.646c-0.264-2.772-0.463-5.461-0.594-8.069c-0.133-2.607-0.197-5.066-0.197-7.377
		v-76.35h29.508v144.281h-17.428c-2.574,0-4.754-0.396-6.535-1.188c-1.782-0.793-3.5-2.246-5.149-4.358l-68.029-85.954
		c0.197,2.51,0.361,4.969,0.494,7.378c0.131,2.41,0.199,4.671,0.199,6.783v77.339h-29.511V74.184h17.625
		C944.948,74.184,946.17,74.25,947.16,74.381"/>
	<path display="inline" fill="#2AAAE2" d="M1172.543,181.132c0.791,0,1.584,0.146,2.377,0.443c0.791,0.299,1.549,0.811,2.276,1.534
		l13.271,13.963c-5.812,7.595-13.088,13.318-21.836,17.183c-8.748,3.861-19.097,5.793-31.046,5.793
		c-10.959,0-20.778-1.865-29.459-5.596c-8.684-3.729-16.043-8.877-22.084-15.447c-6.038-6.568-10.678-14.359-13.911-23.371
		c-3.236-9.01-4.854-18.797-4.854-29.36c0-10.76,1.848-20.646,5.545-29.657c3.697-9.013,8.863-16.785,15.5-23.321
		c6.633-6.536,14.572-11.618,23.814-15.25c9.241-3.63,19.44-5.446,30.6-5.446c5.412,0,10.512,0.48,15.299,1.437
		c4.785,0.958,9.26,2.277,13.418,3.962c4.158,1.684,7.986,3.696,11.486,6.04c3.5,2.345,6.602,4.936,9.309,7.772l-11.289,15.151
		c-0.727,0.925-1.584,1.767-2.573,2.523c-0.99,0.761-2.377,1.141-4.158,1.141c-1.189,0-2.313-0.265-3.367-0.793
		c-1.057-0.527-2.18-1.171-3.367-1.932c-1.188-0.758-2.492-1.585-3.912-2.476s-3.104-1.716-5.049-2.476
		c-1.949-0.759-4.227-1.401-6.834-1.932c-2.606-0.528-5.66-0.793-9.16-0.793c-6.073,0-11.619,1.074-16.637,3.219
		c-5.018,2.146-9.324,5.217-12.922,9.209c-3.6,3.995-6.404,8.83-8.418,14.508c-2.014,5.679-3.02,12.05-3.02,19.112
		c0,7.396,1.006,13.961,3.02,19.706s4.754,10.58,8.221,14.506c3.465,3.931,7.508,6.916,12.131,8.963
		c4.619,2.048,9.57,3.07,14.853,3.07c3.037,0,5.811-0.147,8.317-0.445c2.511-0.297,4.837-0.809,6.982-1.534
		c2.146-0.728,4.191-1.666,6.139-2.822c1.947-1.154,3.912-2.59,5.894-4.307c0.793-0.66,1.649-1.205,2.576-1.636
		C1170.596,181.347,1171.553,181.132,1172.543,181.132"/>
	<rect x="1208.688" y="74.184" display="inline" fill="#2AAAE2" width="33.668" height="144.281"/>
	<path display="inline" fill="#2AAAE2" d="M1403.371,218.464h-25.944c-2.906,0-5.299-0.678-7.181-2.031
		c-1.883-1.352-3.186-3.084-3.912-5.199l-8.516-25.151h-54.861l-8.516,25.151c-0.66,1.851-1.947,3.519-3.861,5.002
		c-1.916,1.486-4.26,2.229-7.03,2.229h-26.144l55.851-144.281h34.264L1403.371,218.464z M1310.682,163.306h39.412l-13.271-39.511
		c-0.856-2.508-1.864-5.461-3.02-8.862c-1.156-3.398-2.295-7.081-3.418-11.042c-1.058,4.028-2.146,7.758-3.269,11.19
		c-1.123,3.432-2.178,6.402-3.168,8.912L1310.682,163.306z"/>
	<polygon display="inline" fill="#2AAAE2" points="1448.526,191.728 1502,191.728 1502,218.464 1415.055,218.464 1415.055,74.184 
		1448.526,74.184 	"/>
	<path display="inline" fill="#272361" d="M17.978,33.686c0,0,109.829,125.595,1.479,233.455h18.712c0,0,101.46-97.022,0-233.455
		H17.978z"/>
	<path display="inline" fill="#ED2224" d="M62.88,33.692h62.549c0,0,99.982,117.219,0,235.42H63.867
		C63.867,269.113,149.559,148.446,62.88,33.692"/>
	<path display="inline" fill="#2AAAE2" d="M179.406,212.47c-6.979,18.531-17.882,37.572-34.013,56.643h133.952
		c0,0-18.792-22.045-31.935-56.643H179.406z"/>
	<path display="inline" fill="#2AAAE2" d="M145.393,33.692c0,0,18.792,22.046,31.936,56.644h68.004
		c6.98-18.53,17.882-37.573,34.012-56.644H145.393z"/>
	<path display="inline" fill="#ED2224" d="M236.821,122.589h-50.253c3.429,17.632,4.496,37.09,1.311,57.627h4.682h45.599
		C234.725,162.583,233.637,143.125,236.821,122.589"/>
</g>
</svg>
